<?xml version="1.0" encoding="UTF-8" standalone="no"?> <svg xmlns="http://www.w3.org/2000/svg" viewBox="0 0 64 64"><title>Artboard 14</title><g id="Layer_2" data-name="Layer 2"><path d="M35.92,34.84V32.75A18.66,18.66,0,0,0,40,22.2a8,8,0,1,0-16,0,18.6,18.6,0,0,0,4.1,10.55v2.11C20,36.26,17.33,42.18,17.33,49.22v.59H46.68v-.59C46.68,42.15,44.34,36.2,35.92,34.84Z"/><path d="M47.67,34.65V33.52a10.19,10.19,0,0,0,2.2-5.64,4.3,4.3,0,1,0-8.6,0,9.83,9.83,0,0,0,2.2,5.64v1.13a7.05,7.05,0,0,0-2.36.81,11.2,11.2,0,0,1,5.75,7.2h6.56v-.27C53.42,38.57,52.18,35.35,47.67,34.65Z"/><path d="M23.05,35.46a7.72,7.72,0,0,0-2.47-.81V33.52a10.11,10.11,0,0,0,2.15-5.64,4.3,4.3,0,0,0-8.6,0,10.19,10.19,0,0,0,2.2,5.64v1.13c-4.35.75-5.75,3.92-5.75,7.74v.27H17.3A11.94,11.94,0,0,1,23.05,35.46Z"/></g></svg>