<svg class="lectura" width="354" height="465" viewBox="0 0 354 465" fill="none" xmlns="http://www.w3.org/2000/svg">
                    <path d="M252 399.661L243.837 419L158 399.543L170.048 371L252 399.661Z" fill="#FFB7B7"/>
                    <path class="svg__zapato" d="M275 401.764L248.394 465L247.518 464.693C240.37 462.185 234.606 457.186 231.493 450.797C228.38 444.408 228.174 437.152 230.92 430.624L230.921 430.622L247.171 392L275 401.764Z" fill="#2F2E41"/>
                    <path class="svg__sobrante" d="M123.449 167.836L86.0151 164.245L67.8041 256.775C67.4908 261.412 69.3266 266.075 72.9184 269.764C76.5102 273.453 81.5724 275.876 87.0206 276.513L110.668 279.279L123.449 167.836Z" fill="#E5E5E5"/>
                    <path class="svg__brazo" d="M146.52 164.923L110.237 155.681L68.7969 250.801C67.3155 255.654 67.9628 260.848 70.6002 265.269C73.2375 269.69 77.6552 272.987 82.9069 274.453L105.701 280.817L146.52 164.923Z" fill="#E5E5E5"/>
                    <path class="svg__sobrante" d="M257.379 152.292L230.722 150.114L222.001 248.601C227.886 249.169 233.81 248.864 239.406 247.707C245.001 246.549 250.147 244.563 254.523 241.873C258.899 239.183 262.411 235.846 264.839 232.071C267.268 228.295 268.561 224.162 268.638 219.93L257.379 152.292Z" fill="#E5E5E5"/>
                    <path class="svg__brazo" d="M222.127 150.807L194.623 161.38L234.921 268.013C241.036 265.769 246.757 262.6 251.728 258.701C256.698 254.802 260.812 250.259 263.813 245.353C266.813 240.448 268.635 235.286 269.167 230.19C269.698 225.094 268.926 220.172 266.899 215.733L222.127 150.807Z" fill="#E5E5E5"/>
                    <path d="M104.351 314.767C103.744 318.277 102.863 321.743 101.715 325.138C100.423 328.461 98.4267 331.534 97.2447 334.892C93.4768 345.594 98.7002 357.527 107.043 365.788C114.277 372.923 123.616 377.993 133.932 380.384C141.458 382.115 149.283 382.364 157.039 382.604C178.516 383.27 200.545 383.866 220.896 377.556C227.326 375.513 233.536 372.934 239.448 369.851C241.315 369.038 242.96 367.854 244.262 366.386C245.814 364.366 246.013 361.746 245.999 359.278C245.954 350.955 244.108 342.674 244.546 334.36C244.789 329.755 245.732 325.154 245.268 320.563C244.625 315.35 242.236 310.445 238.427 306.52C234.618 302.595 229.575 299.843 223.989 298.639C218.216 297.505 212.228 298.123 206.351 298.64C191.094 299.98 175.773 300.606 160.447 300.516C144.787 300.425 129.224 298.239 113.642 298.011C109.034 297.944 109.127 299.242 107.66 303.319C106.309 307.071 105.204 310.894 104.351 314.767V314.767Z" fill="#2F2E41"/>
                    <path d="M43.2479 307.288C39.0404 306.313 34.705 305.888 30.3692 306.025C25.8136 306.258 21.3638 307.381 17.3157 309.322C13.2676 311.263 9.71389 313.976 6.89097 317.281C4.06806 320.587 2.04058 324.408 0.943337 328.492C-0.153902 332.576 -0.295757 336.828 0.527214 340.966C1.57786 345.449 3.29519 349.776 5.63045 353.825C9.04594 360.217 13.1423 366.593 19.4652 370.689C23.164 373.085 27.4448 374.579 31.6748 376.048L64.9764 387.617C69.8754 389.318 74.7752 391.02 79.7227 392.598C104.579 400.521 130.493 405.271 156.745 406.718C164.741 407.157 172.858 407.279 180.659 405.601C182.51 405.202 184.485 404.608 185.557 403.161C186.192 402.141 186.566 401.001 186.651 399.828L188.7 386.599C188.989 384.737 189.266 382.776 188.526 381.023C187.587 378.8 185.234 377.401 182.991 376.213C161.097 364.618 135.534 358.221 117.106 342.307C112.768 338.56 109.137 332.622 103.867 330.077C97.8894 327.191 90.8501 325.544 84.6719 322.885C71.1655 317.071 57.8862 310.391 43.2479 307.288Z" fill="#2F2E41"/>
                    <path opacity="0.1" d="M76.1058 325.101C88.0295 328.57 138.371 352.603 147 360.995C145.843 361.381 106.601 340.962 105.424 340.634C94.7199 337.652 83.9569 334.649 73.7922 330.284C71.7474 329.406 60.5077 325.279 61.0168 322.884C61.5911 320.18 73.989 324.485 76.1058 325.101Z" fill="black"/>
                    <path d="M147.424 120.379L115.538 142.543C115.538 142.543 81.8913 143.507 83.0282 163.197C84.1651 182.887 97.6313 276.112 97.6313 276.112L100.553 308.189L155.973 322.646C185.917 330.457 217.553 331.077 247.835 324.448V324.448L241.249 292.268C241.249 292.268 267.918 146.118 251.852 139.683C235.786 133.248 225.745 135.087 225.745 135.087L205.607 119L147.424 120.379Z" fill="#E5E5E5"/>
                    <path d="M242 82.5016C242 112.258 212.898 107.757 177 107.757C141.101 107.757 112 112.258 112 82.5016C112 52.7453 126.215 0 177 0C229.534 0 242 52.7453 242 82.5016Z" fill="#2F2E41"/>
                    <path d="M210.545 92.163C227.533 75.175 227.533 47.6321 210.545 30.6442C193.557 13.6562 166.014 13.6562 149.026 30.6442C132.039 47.6321 132.038 75.1751 149.026 92.163C166.014 109.151 193.557 109.151 210.545 92.163Z" fill="#FFB7B7" stroke="000"/>
                    <path d="M126.464 60.3018H143.669L151.26 39.0485L152.778 60.3018H161.001L165.429 47.9041L166.314 60.3018H227.418C227.418 48.0889 222.566 36.3762 213.93 27.7404C205.294 19.1045 193.582 14.2529 181.369 14.2529H172.513C160.3 14.2529 148.587 19.1045 139.952 27.7404C131.316 36.3762 126.464 48.0889 126.464 60.3018V60.3018Z" fill="#2F2E41"/>
                    <path class="svg__brazo svg__cuaderno" d="M218 103H131V208H218V103Z" fill="#6C63FF"/>
                    <path d="M138 398.661L146.251 418L233 398.543L220.823 370L138 398.661Z" fill="#FFB7B7"/>
                    <path class="svg__zapato" d="M143.224 391L159.121 429.622L159.122 429.624C161.808 436.152 161.606 443.408 158.561 449.797C155.516 456.186 149.877 461.185 142.884 463.693L142.027 464L116 400.764L143.224 391Z" fill="#2F2E41"/>
                    <path d="M310.38 299.662C317.301 298.065 324.476 297.614 331.569 298.33C337.234 298.904 343.07 300.354 347.206 303.961C352.24 308.352 353.857 315.141 353.992 321.521C354.214 334.229 349.632 346.613 341.031 356.558C338.93 359.074 336.432 361.286 333.62 363.121C330.587 364.867 327.353 366.3 323.979 367.395L249.137 394.553C229.447 401.697 209.688 408.862 189.151 413.572C188.035 414.068 186.75 414.136 185.579 413.76C184.408 413.384 183.448 412.596 182.909 411.569C182.892 411.537 182.876 411.506 182.861 411.474C176.303 402.857 170.802 393.599 166.457 383.87C166.252 383.639 166.109 383.365 166.043 383.073C165.976 382.78 165.987 382.477 166.075 382.19C166.163 381.902 166.324 381.638 166.546 381.42C166.769 381.202 167.045 381.036 167.351 380.937L220.287 352.956C224.079 350.951 227.913 348.918 231.062 346.126C233.35 344.086 235.223 341.687 236.594 339.041C237.691 336.933 237.793 331.957 239.195 330.399C240.567 328.873 245.262 328.751 247.43 328.151C250.487 327.289 253.482 326.248 256.394 325.033C268.236 320.16 278.781 313.079 290.132 307.372C296.499 304.024 303.303 301.433 310.38 299.662V299.662Z" fill="#2F2E41"/>
                    <path opacity="0.1" d="M280.459 321.321C271.419 327.591 259.714 333.354 250.754 339.789C247.696 341.985 196.721 368.449 196 371.964C204.359 373.265 257.606 338.867 265.224 335.434C272.843 332.002 279.596 327.162 286.288 322.357C287.993 321.133 295.221 317.452 290.325 316.084C287.567 315.313 282.495 320.067 280.459 321.321Z" fill="black"/>
                    <path class="svg__brazo" opacity="0.17" d="M101 170L102.201 160.73C102.201 160.73 147 164 140 175C133 186 116 187 116 187L101 170Z" fill="black"/>
                    <path class="svg__brazo" d="M134.816 129.693C137.382 129.975 139.854 130.822 142.054 132.173C144.254 133.524 146.128 135.345 147.541 137.506V137.506C148.828 139.478 149.704 141.689 150.115 144.008C150.526 146.327 150.465 148.704 149.934 150.999C149.403 153.293 148.414 155.456 147.026 157.358C145.638 159.261 143.88 160.863 141.858 162.069C141.116 162.507 140.342 162.888 139.542 163.207L112.006 247.435C111.208 249.097 110.09 250.585 108.715 251.813C107.34 253.041 105.736 253.985 103.995 254.592C102.254 255.198 100.41 255.454 98.5699 255.345C96.7295 255.237 94.9288 254.765 93.2712 253.958C91.6136 253.151 90.1319 252.025 88.9112 250.643C87.6905 249.262 86.7549 247.653 86.1582 245.908C85.5615 244.164 85.3154 242.319 85.4342 240.479C85.553 238.639 86.0342 236.841 86.8502 235.188L116.134 151.896C115.337 149.14 115.23 146.23 115.825 143.423C116.42 140.617 117.698 138 119.545 135.805C121.392 133.609 123.752 131.903 126.415 130.837C129.079 129.771 131.964 129.378 134.816 129.693Z" fill="#FFB7B7"/>
                    <path class="svg__brazo" d="M101.411 161.52C101.411 161.52 117.189 188.477 140 175L117.893 259.599H99.2677L80 256L85.3949 221.048L101.411 161.52Z" fill="#E5E5E5"/>
                    <path d="M216.657 202.447L203.587 184.502C203.587 184.502 209.869 165.889 234.228 172.695C234.228 172.695 249.728 207.392 216.657 202.447Z" fill="#E5E5E5"/>
                    <path class="svg__brazo" opacity="0.17" d="M214.071 179.945L201 162C201 162 207.282 143.387 231.641 150.194C231.641 150.194 247.142 184.89 214.071 179.945Z" fill="black"/>
                    <path class="svg__brazo" d="M217.532 117.249C221.302 119.002 224.319 122.05 226.032 125.84C227.745 129.629 228.041 133.907 226.866 137.896L256.15 221.188C256.966 222.841 257.447 224.64 257.566 226.479C257.685 228.319 257.439 230.164 256.842 231.909C256.246 233.653 255.31 235.263 254.089 236.644C252.869 238.026 251.387 239.152 249.729 239.959C248.072 240.766 246.271 241.238 244.43 241.346C242.59 241.455 240.746 241.199 239.005 240.593C237.264 239.986 235.66 239.042 234.285 237.813C232.91 236.585 231.792 235.097 230.994 233.435L203.458 149.207C202.658 148.888 201.884 148.507 201.142 148.069C199.12 146.863 197.362 145.261 195.974 143.359C194.586 141.456 193.597 139.293 193.066 136.999C192.535 134.704 192.474 132.327 192.885 130.008C193.296 127.689 194.172 125.478 195.459 123.506V123.506C196.872 121.345 198.746 119.524 200.946 118.173C203.146 116.823 205.618 115.975 208.184 115.693C211.384 115.33 214.622 115.869 217.532 117.249Z" fill="#FFB7B7"/>
                    <path class="svg__brazo" d="M201 162C201 162 222.566 175.086 231.641 150.194L262.03 230.208L253 246L251.694 246.109C246.307 246.558 240.892 245.693 235.913 243.588C230.934 241.483 226.541 238.2 223.11 234.023V234.023C216.113 225.502 211.35 215.372 209.251 204.548L201 162Z" fill="#E5E5E5"/>
                </svg>