<?xml version="1.0" encoding="UTF-8" standalone="no"?> <svg width="64" height="64" viewBox="0 0 64 64" fill="none" xmlns="http://www.w3.org/2000/svg">
<path d="M24.877 54H39.123L38.323 52H25.677L24.877 54Z" fill="black"/>
<path d="M30 24V27C30 27.2652 29.8946 27.5196 29.7071 27.7071C29.5196 27.8946 29.2652 28 29 28V50H35V28C34.7348 28 34.4804 27.8946 34.2929 27.7071C34.1054 27.5196 34 27.2652 34 27V24H30Z" fill="black"/>
<path d="M41 28H37V50H41V28Z" fill="black"/>
<path d="M42 24H36V26H42V24Z" fill="black"/>
<path d="M16 24V27C16 27.2652 15.8946 27.5196 15.7071 27.7071C15.5196 27.8946 15.2652 28 15 28V46C15.2652 46 15.5196 46.1054 15.7071 46.2929C15.8946 46.4804 16 46.7348 16 47V50H21V28C20.7348 28 20.4804 27.8946 20.2929 27.7071C20.1054 27.5196 20 27.2652 20 27V24H16Z" fill="black"/>
<path d="M23.523 52H6V54H22.723L23.523 52Z" fill="black"/>
<path d="M13 28H9V46H13V28Z" fill="black"/>
<path d="M14 24H8V26H14V24Z" fill="black"/>
<path d="M4 60H20.323L21.923 56H4V60Z" fill="black"/>
<path d="M27 28H23V50H27V28Z" fill="black"/>
<path d="M14 48H8V50H14V48Z" fill="black"/>
<path d="M56 24H50V26H56V24Z" fill="black"/>
<path d="M4 17.814V22H60V17.814L32 12.021L4 17.814ZM36 17C36 17.7911 35.7654 18.5645 35.3259 19.2223C34.8864 19.8801 34.2616 20.3928 33.5307 20.6955C32.7998 20.9983 31.9956 21.0775 31.2196 20.9231C30.4437 20.7688 29.731 20.3878 29.1716 19.8284C28.6122 19.269 28.2312 18.5563 28.0769 17.7804C27.9225 17.0044 28.0017 16.2002 28.3045 15.4693C28.6072 14.7384 29.1199 14.1136 29.7777 13.6741C30.4355 13.2346 31.2089 13 32 13C33.0609 13 34.0783 13.4214 34.8284 14.1716C35.5786 14.9217 36 15.9391 36 17Z" fill="black"/>
<path d="M28 24H22V26H28V24Z" fill="black"/>
<path d="M56 48H50V50H56V48Z" fill="black"/>
<path d="M60 60V56H42.077L43.677 60H60Z" fill="black"/>
<path d="M32 19C33.1046 19 34 18.1046 34 17C34 15.8954 33.1046 15 32 15C30.8954 15 30 15.8954 30 17C30 18.1046 30.8954 19 32 19Z" fill="black"/>
<path d="M39.923 56H24.077L22.477 60H41.523L39.923 56Z" fill="black"/>
<path d="M58 52H42H40.477L41.277 54H58V52Z" fill="black"/>
<path d="M44 24V27C44 27.2652 43.8946 27.5196 43.7071 27.7071C43.5196 27.8946 43.2652 28 43 28V50H48V47C48 46.7348 48.1054 46.4804 48.2929 46.2929C48.4804 46.1054 48.7348 46 49 46V28C48.7348 28 48.4804 27.8946 48.2929 27.7071C48.1054 27.5196 48 27.2652 48 27V24H44Z" fill="black"/>
<path d="M55 28H51V46H55V28Z" fill="black"/>
<path d="M13 6H12H11V14.14H13V10H18L16 8.14L18 6H13Z" fill="black"/>
<path d="M50 8.14L52 6H47H46H45V12.9H47V10H52L50 8.14Z" fill="black"/>
<path d="M33 3H32H31V10H33V7H38L36 5.14L38 3H33Z" fill="black"/>
</svg>
